<svg xmlns="http://www.w3.org/2000/svg" xmlns:xlink="http://www.w3.org/1999/xlink" width="120" height="26" viewBox="0 0 120 26">
    <defs>
        <filter id="74j71eqh3b" width="100%" height="103.1%" x="0%" y="0%" filterUnits="objectBoundingBox">
            <feGaussianBlur in="SourceGraphic"/>
        </filter>
        <filter id="uxuxhzi7cd" width="103.1%" height="106.2%" x="-1.6%" y="-1.6%" filterUnits="objectBoundingBox">
            <feOffset dy=".1" in="SourceAlpha" result="shadowOffsetOuter1"/>
            <feColorMatrix in="shadowOffsetOuter1" values="0 0 0 0 0.26488904 0 0 0 0 0.187946042 0 0 0 0 0.187946042 0 0 0 1 0"/>
        </filter>
        <filter id="hltsbwmqyf" width="100%" height="106%" x="0%" y="0%" filterUnits="objectBoundingBox">
            <feGaussianBlur in="SourceGraphic"/>
        </filter>
        <filter id="xgcouhi25g" width="106%" height="111.9%" x="-3%" y="-3%" filterUnits="objectBoundingBox">
            <feOffset dy=".1" in="SourceAlpha" result="shadowOffsetOuter1"/>
            <feColorMatrix in="shadowOffsetOuter1" values="0 0 0 0 0.26488904 0 0 0 0 0.187946042 0 0 0 0 0.187946042 0 0 0 1 0"/>
        </filter>
        <filter id="i8vmthsm6i" width="100%" height="108.5%" x="0%" y="0%" filterUnits="objectBoundingBox">
            <feGaussianBlur in="SourceGraphic"/>
        </filter>
        <filter id="6wdnuf6zmj" width="108.5%" height="117.1%" x="-4.3%" y="-4.3%" filterUnits="objectBoundingBox">
            <feOffset dy=".1" in="SourceAlpha" result="shadowOffsetOuter1"/>
            <feColorMatrix in="shadowOffsetOuter1" values="0 0 0 0 0.26488904 0 0 0 0 0.187946042 0 0 0 0 0.187946042 0 0 0 1 0"/>
        </filter>
        <filter id="n3w0zufbll" width="100%" height="108.5%" x="0%" y="0%" filterUnits="objectBoundingBox">
            <feGaussianBlur in="SourceGraphic"/>
        </filter>
        <filter id="ae6s9lv45m" width="108.5%" height="117.1%" x="-4.3%" y="-4.3%" filterUnits="objectBoundingBox">
            <feOffset dy=".1" in="SourceAlpha" result="shadowOffsetOuter1"/>
            <feColorMatrix in="shadowOffsetOuter1" values="0 0 0 0 0.26488904 0 0 0 0 0.187946042 0 0 0 0 0.187946042 0 0 0 1 0"/>
        </filter>
        <filter id="j7gixdtmzo" width="100%" height="108.5%" x="0%" y="0%" filterUnits="objectBoundingBox">
            <feGaussianBlur in="SourceGraphic"/>
        </filter>
        <filter id="hmle8vwh4p" width="108.5%" height="117.1%" x="-4.3%" y="-4.3%" filterUnits="objectBoundingBox">
            <feOffset dy=".1" in="SourceAlpha" result="shadowOffsetOuter1"/>
            <feColorMatrix in="shadowOffsetOuter1" values="0 0 0 0 0.26488904 0 0 0 0 0.187946042 0 0 0 0 0.187946042 0 0 0 1 0"/>
        </filter>
        <filter id="vcb3k41bpr" width="100%" height="105%" x="0%" y="0%" filterUnits="objectBoundingBox">
            <feGaussianBlur in="SourceGraphic"/>
        </filter>
        <filter id="zefzv9ovps" width="105%" height="110%" x="-2.5%" y="-2.5%" filterUnits="objectBoundingBox">
            <feOffset dy=".1" in="SourceAlpha" result="shadowOffsetOuter1"/>
            <feColorMatrix in="shadowOffsetOuter1" values="0 0 0 0 0.26488904 0 0 0 0 0.187946042 0 0 0 0 0.187946042 0 0 0 1 0"/>
        </filter>
        <filter id="vjy5u145mu" width="100%" height="105%" x="0%" y="0%" filterUnits="objectBoundingBox">
            <feGaussianBlur in="SourceGraphic"/>
        </filter>
        <filter id="zkf70fskwv" width="105%" height="110%" x="-2.5%" y="-2.5%" filterUnits="objectBoundingBox">
            <feOffset dy=".1" in="SourceAlpha" result="shadowOffsetOuter1"/>
            <feColorMatrix in="shadowOffsetOuter1" values="0 0 0 0 0.26488904 0 0 0 0 0.187946042 0 0 0 0 0.187946042 0 0 0 1 0"/>
        </filter>
        <filter id="5bwf22czyx" width="100%" height="104.8%" x="0%" y="0%" filterUnits="objectBoundingBox">
            <feGaussianBlur in="SourceGraphic"/>
        </filter>
        <filter id="mlk14dg8wy" width="104.8%" height="109.6%" x="-2.4%" y="-2.4%" filterUnits="objectBoundingBox">
            <feOffset dy=".1" in="SourceAlpha" result="shadowOffsetOuter1"/>
            <feColorMatrix in="shadowOffsetOuter1" values="0 0 0 0 0.26488904 0 0 0 0 0.187946042 0 0 0 0 0.187946042 0 0 0 1 0"/>
        </filter>
        <circle id="m4nr4f3vue" cx="4.141" cy="7.308" r="1.605"/>
        <circle id="cfba09bwuh" cx="3.145" cy="12.763" r="1"/>
        <circle id="f6ec99ev3k" cx="8.053" cy="14.682" r="1"/>
        <circle id="rjvx3s74in" cx="8.638" cy="8.063" r="1"/>
        <circle id="s442vgnm6q" cx="16.323" cy="10.906" r="1"/>
        <circle id="yog5npg78t" cx="11.015" cy="17.928" r="1"/>
        <circle id="3epvl2hfcw" cx="5.467" cy="1.01" r="1"/>
        <circle id="g4t66i24zz" cx="12.319" cy="11.943" r="1.041"/>
        <path id="yt4nzo5cea" d="M16.315 13.313c-.342 2.185-2.055 3.897-4.24 4.24-2.513.393-5.026.393-7.54 0-2.185-.343-3.897-2.055-4.24-4.24-.393-2.514-.393-5.027 0-7.54.343-2.185 1.688-4.215 3.873-4.557 1.637-.256 3.64-.029 5.277.049-.271.341-.43.77-.43 1.229 0 .087.005.174.017.263.06.454.27.852.574 1.15.303.298.7.496 1.134.551-.275.354-.414.783-.414 1.213 0 .468.165.938.501 1.315.39.438.933.662 1.477.662.356 0 .713-.096 1.03-.29.011.47.188.908.483 1.249.295.34.707.582 1.187.658.104.016.208.024.31.024.482 0 .935-.177 1.285-.477.046 1.5-.049 3-.284 4.5z"/>
    </defs>
    <g fill="none" fill-rule="evenodd">
        <g>
            <g>
                <g fill="#2B2B2B" fill-rule="nonzero">
                    <path d="M5.9 11.983c1.288 0 2.413-.306 3.374-.917.96-.612 1.661-1.478 2.102-2.6H9.528c-.328.707-.8 1.248-1.416 1.624-.616.376-1.353.564-2.212.564-.825 0-1.565-.191-2.221-.573-.656-.381-1.17-.923-1.543-1.624-.373-.701-.56-1.517-.56-2.449 0-.942.187-1.764.56-2.465.373-.701.887-1.243 1.543-1.624.656-.382 1.396-.573 2.22-.573.86 0 1.597.191 2.213.573.616.381 1.088.925 1.416 1.632h1.848c-.44-1.133-1.142-2.008-2.102-2.625C8.313.309 7.188 0 5.9 0 4.804 0 3.806.258 2.908.774 2.009 1.29 1.3 2.006.78 2.92.26 3.835 0 4.864 0 6.008c0 1.145.26 2.172.78 3.08.52.91 1.229 1.619 2.128 2.13.898.51 1.896.765 2.992.765zM19.022 12c1.108 0 2.114-.255 3.018-.766.904-.51 1.616-1.22 2.136-2.129s.78-1.94.78-3.097c0-1.155-.26-2.188-.78-3.096-.52-.91-1.232-1.619-2.136-2.13-.904-.51-1.91-.765-3.018-.765-1.096 0-2.096.255-3 .766-.905.51-1.62 1.223-2.145 2.137-.526.915-.789 1.944-.789 3.088 0 1.145.263 2.174.789 3.089.525.914 1.24 1.627 2.144 2.137.905.51 1.905.766 3.001.766zm0-1.33c-.825 0-1.568-.19-2.23-.572-.66-.381-1.18-.925-1.559-1.632-.379-.707-.568-1.526-.568-2.458 0-.942.19-1.764.568-2.465.379-.701.896-1.243 1.551-1.624.656-.382 1.402-.573 2.238-.573.837 0 1.583.191 2.238.573.656.381 1.173.923 1.551 1.624.38.701.568 1.523.568 2.465 0 .932-.189 1.75-.568 2.458-.378.707-.898 1.25-1.56 1.632-.66.382-1.404.572-2.229.572zM32.348 12c1.108 0 2.114-.255 3.018-.766.904-.51 1.616-1.22 2.136-2.129s.78-1.94.78-3.097c0-1.155-.26-2.188-.78-3.096-.52-.91-1.232-1.619-2.136-2.13-.904-.51-1.91-.765-3.018-.765-1.096 0-2.097.255-3 .766-.905.51-1.62 1.223-2.146 2.137-.525.915-.788 1.944-.788 3.088 0 1.145.263 2.174.788 3.089.526.914 1.24 1.627 2.145 2.137.904.51 1.905.766 3.001.766zm0-1.33c-.825 0-1.568-.19-2.23-.572-.66-.381-1.18-.925-1.56-1.632-.378-.707-.567-1.526-.567-2.458 0-.942.19-1.764.568-2.465.378-.701.896-1.243 1.551-1.624.656-.382 1.402-.573 2.238-.573.836 0 1.582.191 2.238.573.655.381 1.173.923 1.551 1.624.379.701.568 1.523.568 2.465 0 .932-.19 1.75-.568 2.458-.378.707-.898 1.25-1.56 1.632-.66.382-1.404.572-2.229.572zm9.511 1.212V6.53l4.866 5.352h2.017l-5.408-5.857L48.691.151h-1.95L41.86 5.588V.15h-1.543v11.731h1.543zm10.155 0V.152h-1.542v11.73h1.542zm8.986 0V10.62h-4.815V6.58h4.306V5.319h-4.306V1.397H61V.135h-6.358v11.747H61z" transform="translate(-80 -13) translate(80 13) translate(0 10.45)"/>
                </g>
                <path fill="#2B2B2B" fill-rule="nonzero" d="M68.258 22.193L71.014 22.176 73.315 13.827 75.516 22.176 78.288 22.176 81.564 10.45 79.027 10.45 76.944 19.505 74.693 10.45 72.072 10.45 69.686 19.556 67.62 10.45 65.1 10.45zM106.058 22.193L108.814 22.176 111.115 13.827 113.316 22.176 116.088 22.176 119.364 10.45 116.827 10.45 114.744 19.505 112.493 10.45 109.872 10.45 107.486 19.556 105.42 10.45 102.9 10.45z" transform="translate(-80 -13) translate(80 13)"/>
                <g transform="translate(-80 -13) translate(80 13) rotate(-20 63.218 -227.194)">
                    <path fill="#C6865C" fill-rule="nonzero" stroke="#2B2B2B" stroke-linejoin="round" d="M4.09.722C5.41.516 6.96.611 8.377.702c.376.023.742.047 1.092.064h0l.975.046-.608.764c-.197.249-.316.56-.321.892.062.539.207.852.44 1.082.228.222.524.371.848.412h0l.87.111-.538.692c-.205.264-.31.585-.31.906 0 .35.125.7.375.982.292.328.697.495 1.104.495.266 0 .533-.072.77-.216h0l.74-.454.02.869c.008.35.14.678.361.932.214.248.511.425.857.487.595.014.95-.101 1.221-.333h0l.794-.68.032 1.044c.046 1.53-.05 3.062-.29 4.593-.188 1.2-.752 2.27-1.57 3.087-.816.817-1.887 1.382-3.087 1.57-2.564.402-5.13.402-7.694 0-1.2-.188-2.27-.752-3.087-1.57C.553 15.66-.011 14.59-.2 13.39c-.401-2.565-.401-5.13 0-7.694.195-1.246.697-2.442 1.469-3.35C1.987 1.502 2.935.903 4.09.722z"/>
                    <mask id="d5pt3bw1nc" fill="#fff">
                        <use xlink:href="#yt4nzo5cea"/>
                    </mask>
                    <path stroke="#2B2B2B" d="M4.09.722C5.41.516 6.96.611 8.377.702c.376.023.742.047 1.092.064h0l.975.046-.608.764c-.197.249-.316.56-.321.892.062.539.207.852.44 1.082.228.222.524.371.848.412h0l.87.111-.538.692c-.205.264-.31.585-.31.906 0 .35.125.7.375.982.292.328.697.495 1.104.495.266 0 .533-.072.77-.216h0l.74-.454.02.869c.008.35.14.678.361.932.214.248.511.425.857.487.595.014.95-.101 1.221-.333h0l.794-.68.032 1.044c.046 1.53-.05 3.062-.29 4.593-.188 1.2-.752 2.27-1.57 3.087-.816.817-1.887 1.382-3.087 1.57-2.564.402-5.13.402-7.694 0-1.2-.188-2.27-.752-3.087-1.57C.553 15.66-.011 14.59-.2 13.39c-.401-2.565-.401-5.13 0-7.694.195-1.246.697-2.442 1.469-3.35C1.987 1.502 2.935.903 4.09.722z"/>
                    <g fill-rule="nonzero" filter="url(#74j71eqh3b)" mask="url(#d5pt3bw1nc)">
                        <use fill="#000" filter="url(#uxuxhzi7cd)" xlink:href="#m4nr4f3vue"/>
                        <use fill="#5E4545" xlink:href="#m4nr4f3vue"/>
                    </g>
                    <g fill-rule="nonzero" filter="url(#hltsbwmqyf)" mask="url(#d5pt3bw1nc)">
                        <use fill="#000" filter="url(#xgcouhi25g)" xlink:href="#cfba09bwuh"/>
                        <use fill="#5E4545" xlink:href="#cfba09bwuh"/>
                    </g>
                    <g fill-rule="nonzero" filter="url(#i8vmthsm6i)" mask="url(#d5pt3bw1nc)">
                        <use fill="#000" filter="url(#6wdnuf6zmj)" xlink:href="#f6ec99ev3k"/>
                        <use fill="#5E4545" xlink:href="#f6ec99ev3k"/>
                    </g>
                    <g fill-rule="nonzero" filter="url(#n3w0zufbll)" mask="url(#d5pt3bw1nc)">
                        <use fill="#000" filter="url(#ae6s9lv45m)" xlink:href="#rjvx3s74in"/>
                        <use fill="#5E4545" xlink:href="#rjvx3s74in"/>
                    </g>
                    <g fill-rule="nonzero" filter="url(#j7gixdtmzo)" mask="url(#d5pt3bw1nc)">
                        <use fill="#000" filter="url(#hmle8vwh4p)" xlink:href="#s442vgnm6q"/>
                        <use fill="#5E4545" xlink:href="#s442vgnm6q"/>
                    </g>
                    <g fill-rule="nonzero" filter="url(#vcb3k41bpr)" mask="url(#d5pt3bw1nc)">
                        <use fill="#000" filter="url(#zefzv9ovps)" xlink:href="#yog5npg78t"/>
                        <use fill="#5E4545" xlink:href="#yog5npg78t"/>
                    </g>
                    <g fill-rule="nonzero" filter="url(#vjy5u145mu)" mask="url(#d5pt3bw1nc)">
                        <use fill="#000" filter="url(#zkf70fskwv)" xlink:href="#3epvl2hfcw"/>
                        <use fill="#5E4545" xlink:href="#3epvl2hfcw"/>
                    </g>
                    <g fill-rule="nonzero" filter="url(#5bwf22czyx)" mask="url(#d5pt3bw1nc)">
                        <use fill="#000" filter="url(#mlk14dg8wy)" xlink:href="#g4t66i24zz"/>
                        <use fill="#5E4545" xlink:href="#g4t66i24zz"/>
                    </g>
                    <g fill="#7887FF" fill-rule="nonzero">
                        <path d="M3.423 4.143l-.066-.066c-.232-.232-.245-.604-.03-.851l.664-.761c.238-.273.656-.287.912-.031l.163.163c.256.256.241.674-.031.912l-.76.663c-.248.215-.62.203-.852-.03zM1.226 3.045l-.09-.024C.82 2.936.622 2.62.686 2.298l.193-.99c.07-.355.425-.577.774-.484l.223.06c.35.094.546.464.43.806l-.328.954c-.107.31-.435.486-.752.4zM4.48 6.364l-.025-.09c-.085-.317.09-.646.4-.752l.955-.327c.342-.118.712.08.805.428l.06.224c.094.349-.128.704-.483.774l-.99.194c-.322.063-.638-.134-.723-.451z" transform="translate(11)"/>
                    </g>
                </g>
            </g>
        </g>
    </g>
</svg>
